<svg id="Layer_1" data-name="Layer 1" xmlns="http://www.w3.org/2000/svg" xmlns:xlink="http://www.w3.org/1999/xlink" viewBox="0 0 391 392"><defs><style>.cls-1{fill:none;}.cls-2{clip-path:url(#clip-path);}.cls-3{fill:#5b5ca2;}.cls-4{fill:#e6e6e6;}.cls-5{opacity:0.6;}.cls-6{clip-path:url(#clip-path-4);}.cls-7{fill:#f1f1f1;}.cls-8{opacity:0.3;}.cls-9{clip-path:url(#clip-path-5);}.cls-10{clip-path:url(#clip-path-6);}.cls-11{clip-path:url(#clip-path-7);}.cls-12{clip-path:url(#clip-path-8);}.cls-13{clip-path:url(#clip-path-9);}.cls-14{clip-path:url(#clip-path-10);}.cls-15{clip-path:url(#clip-path-11);}.cls-16{clip-path:url(#clip-path-12);}.cls-17{fill:#8fb84c;}.cls-18{fill:#962f83;}.cls-19{fill:#cf9370;}.cls-20{fill:#65405a;}.cls-21{fill:#3c295f;}.cls-22{fill:#6b2359;}.cls-23{fill:#b899c3;}.cls-24{fill:#bdcd3c;}.cls-25{fill:#314d2a;}.cls-26{fill:#a71a6d;}.cls-27{fill:#aa3e1f;}.cls-28{fill:#cb9927;}.cls-29{fill:#2a345a;}.cls-30{fill:#7dbcc0;}.cls-31{fill:#aa207a;}.cls-32{fill:#314a95;}.cls-33{fill:#4b8689;}.cls-34{fill:#6d3385;}.cls-35{fill:#a01462;}.cls-36{fill:#b9cb49;}.cls-37{fill:#f4d331;}.cls-38{fill:#68b2e6;}.cls-39{fill:#342552;}</style><clipPath id="clip-path"><rect class="cls-1" x="-83.2" y="-2.22" width="558.4" height="396.37"/></clipPath><clipPath id="clip-path-4"><rect class="cls-1" x="103.47" y="33.04" width="136.53" height="130.28"/></clipPath><clipPath id="clip-path-5"><rect class="cls-1" x="221.68" y="63.1" width="103.4" height="100.22"/></clipPath><clipPath id="clip-path-6"><rect class="cls-1" x="211.32" y="33.77" width="78.51" height="46.79"/></clipPath><clipPath id="clip-path-7"><rect class="cls-1" x="81.38" y="62.19" width="158.62" height="176.03"/></clipPath><clipPath id="clip-path-8"><rect class="cls-1" x="176.87" y="163.32" width="166.7" height="131.42"/></clipPath><clipPath id="clip-path-9"><rect class="cls-1" x="176.87" y="238.22" width="110.24" height="103.26"/></clipPath><clipPath id="clip-path-10"><rect class="cls-1" x="33.7" y="193.5" width="80.73" height="68.36"/></clipPath><clipPath id="clip-path-11"><rect class="cls-1" x="47.58" y="218.71" width="129.29" height="64.8"/></clipPath><clipPath id="clip-path-12"><rect class="cls-1" x="100.61" y="238.22" width="168.36" height="120.68"/></clipPath></defs><g class="cls-2"><g class="cls-2"><rect class="cls-3" x="244.31" y="84.28" width="58.14" height="223.25"/><polygon class="cls-4" points="221.68 80.56 211.32 33.77 240 163.32 221.68 80.56"/><polygon class="cls-4" points="176.87 238.22 33.73 193.5 114.43 218.71 176.87 238.22"/><polygon class="cls-4" points="325.08 97.32 325.08 97.32 240 163.32 325.08 97.32"/><polygon class="cls-4" points="255.16 268.1 324.98 294.74 176.87 238.22 255.16 268.1"/><polygon class="cls-4" points="325.08 97.32 325.08 97.32 337.48 87.7 349.77 78.17 325.08 97.32"/><path class="cls-4" d="M325,294.74l30.22,11.54Z"/><path class="cls-4" d="M33.74,193.5,2.87,183.85Z"/><g class="cls-2"><g class="cls-5"><g class="cls-6"><path class="cls-7" d="M211.32,33.77Q203.76,33.05,196,33a161,161,0,0,0-92.53,29.15L240,163.32Z"/></g></g><g class="cls-8"><g class="cls-9"><path class="cls-4" d="M289.83,63.1,221.68,80.56,240,163.32l85.08-66A164.14,164.14,0,0,0,289.83,63.1"/></g></g><g class="cls-8"><g class="cls-10"><path class="cls-4" d="M289.83,63.1a160.87,160.87,0,0,0-78.51-29.33l10.36,46.79Z"/></g></g><g class="cls-8"><g class="cls-11"><path class="cls-4" d="M240,163.32,103.47,62.19A163.24,163.24,0,0,0,81.38,80.73l95.49,157.49Z"/></g></g><g class="cls-5"><g class="cls-12"><path class="cls-7" d="M176.87,238.22,325,294.74a163.53,163.53,0,0,0,18.59-31L240,163.32Z"/></g></g><g class="cls-8"><g class="cls-13"><path class="cls-4" d="M176.87,238.22,269,341.48a162.49,162.49,0,0,0,18.15-10.75l-32-62.63Z"/></g></g><g class="cls-8"><g class="cls-14"><path class="cls-4" d="M33.74,193.5c0,.82,0,1.64,0,2.47a162.59,162.59,0,0,0,13.88,65.88l66.85-43.14Z"/></g></g><g class="cls-8"><g class="cls-15"><path class="cls-4" d="M114.43,218.71,47.58,261.85a162.35,162.35,0,0,0,11.6,21.66l117.69-45.29Z"/></g></g><g class="cls-5"><g class="cls-16"><path class="cls-7" d="M100.61,327.69A161.4,161.4,0,0,0,269,341.47L176.87,238.22Z"/></g></g></g><polygon class="cls-17" points="156.66 167.58 244.03 207.84 155.81 207.84 156.66 167.58"/><polygon class="cls-18" points="244.03 167.58 156.66 167.58 244.03 207.84 244.03 167.58"/><g class="cls-2"><path class="cls-17" d="M196,358.9c-5.17,0-10.28-.26-15.32-.73l7.06,31.88c2.74.12,5.49.19,8.26.19a192.07,192.07,0,0,0,118.81-41l-26.28-19.46A161,161,0,0,1,196,358.9"/><path class="cls-19" d="M66.92,294.61,42.23,313.77a194.88,194.88,0,0,0,22.39,24.69l37.55-9.62a164,164,0,0,1-35.25-34.23"/><path class="cls-20" d="M102.17,328.84l-37.56,9.62a192.43,192.43,0,0,0,123.13,51.59l-7.06-31.88a161.07,161.07,0,0,1-78.51-29.33"/><path class="cls-21" d="M288.53,329.75l26.27,19.46q6.45-5,12.43-10.61l-16.61-27.39a164,164,0,0,1-22.09,18.54"/><path class="cls-22" d="M8.33,148.54a194.63,194.63,0,0,0,33.9,165.23l12.29-9.53Z"/><path class="cls-23" d="M66.92,294.61A163.16,163.16,0,0,1,48.43,128.19L24.87,105.34a193.47,193.47,0,0,0-16.54,43.2l46.19,155.7Z"/><path class="cls-24" d="M67,97.19,36.8,85.66a193.18,193.18,0,0,0-11.92,19.68l23.55,22.85A163.61,163.61,0,0,1,67,97.19"/><path class="cls-3" d="M310.62,311.21l16.61,27.39a194.13,194.13,0,0,0,61.9-130.52l-30.86-9.64a162.76,162.76,0,0,1-47.65,112.77"/><path class="cls-25" d="M104.89,61.2,90.57,33.14A195.36,195.36,0,0,0,36.8,85.66L67,97.19a163.87,163.87,0,0,1,37.87-36"/><path class="cls-26" d="M123,50.46l-21.43-24q-5.64,3.18-11,6.71l14.32,28.07A159.49,159.49,0,0,1,123,50.46"/><path class="cls-27" d="M358.3,196c0,.82,0,1.65,0,2.47l30.87,9.64c.24-4,.39-8,.39-12.11a193.76,193.76,0,0,0-18.58-83l-26.52,17.11A162.6,162.6,0,0,1,358.3,196"/><path class="cls-28" d="M344.42,130.08,370.94,113q-3.87-8.19-8.47-16l-29.65,11.41a162.23,162.23,0,0,1,11.6,21.65"/><path class="cls-29" d="M196,33a161,161,0,0,1,95.39,31.2l20.35-23.87A192.52,192.52,0,0,0,101.61,26.43l21.43,24A160.7,160.7,0,0,1,196,33"/><path class="cls-30" d="M332.82,108.43,362.47,97a195.46,195.46,0,0,0-50.73-56.65L291.39,64.24a163.78,163.78,0,0,1,41.43,44.19"/><polygon class="cls-31" points="98.12 84.51 156.66 84.49 97.56 131.6 98.12 84.51"/><polygon class="cls-32" points="156.66 181.29 156.66 84.49 97.56 131.6 156.66 181.29"/><polygon class="cls-33" points="97.56 198.42 156.66 181.29 97.56 131.6 97.56 198.42"/><polygon class="cls-34" points="155.81 246.38 156.66 181.29 97.56 198.42 155.81 246.38"/><polygon class="cls-28" points="97.56 279.79 97.56 198.42 155.81 246.38 97.56 279.79"/><polygon class="cls-35" points="97.56 308.92 155.94 246.65 97.56 279.79 97.56 308.92"/><polygon class="cls-36" points="155.81 308.92 97.56 308.92 155.81 247.24 155.81 308.92"/><polygon class="cls-25" points="303.14 308.92 244.03 308.92 303.14 249.66 303.14 308.92"/><polygon class="cls-37" points="244.03 206.56 244.03 308.39 303.14 249.81 244.03 206.56"/><polygon class="cls-27" points="303.14 190.14 244.03 206.98 303.14 249.81 303.14 190.14"/><polygon class="cls-19" points="244.31 136.44 244.03 206.98 303.14 189.85 244.31 136.44"/><polygon class="cls-38" points="303.14 105.05 303.14 189.85 244.31 136.44 303.14 105.05"/><polygon class="cls-23" points="303.14 84.49 244.31 136.44 303.14 105.05 303.14 84.49"/><polygon class="cls-39" points="244.03 84.49 303.14 84.49 244.03 136.65 244.03 84.49"/></g></g></g></svg>